# xmcd
#
# Track frame offsets:
#	150
#	9627
#	23546
#	37735
#	49977
#	70334
#	84141
#	98530
#	112564
#	129696
#	144867
#	161730
#
# Disc length: 2420 seconds
#
# Revision: 0
# Processed by: cddbd v1.5.2PL0 Copyright (c) Steve Scherf et al.
# Submitted via: audiograbber 1.83.01
#
DISCID=8309720c
DTITLE=Tippin, Aaron - A December To Remember
DYEAR=2001
DGENRE=Coutry Christmas
TTITLE0=Jingle Bell Rock
TTITLE1=Blue Christmas
TTITLE2=It's A Good Thing Santa Ain't Single
TTITLE3=Christmas Is The Warmest Time Of The Year
TTITLE4=He Said That He Was Jesus
TTITLE5=Away In The Manger
TTITLE6=The Year That Santa Never Came
TTITLE7=Run Rudolph Run
TTITLE8=It's Way Too Close To Christmas
TTITLE9=Mama's Gettin' Ready For Christmas
TTITLE10=A December To Remember
TTITLE11=Silent Night
EXTD=
EXTT0=
EXTT1=
EXTT2=
EXTT3=
EXTT4=
EXTT5=
EXTT6=
EXTT7=
EXTT8=
EXTT9=
EXTT10=
EXTT11=
PLAYORDER=
